<svg xmlns="http://www.w3.org/2000/svg" viewBox="0 0 391 392.49">
  <defs>
    <style>
      .cls-1,.cls-2{fill:#fff;}
      .cls-1{fill-rule:evenodd;}
    </style>
  </defs>
  <path class="cls-1" d="M193,112.35a85.35,85.35,0,0,1,47,14.33l56.07-95.62C236.2-8.79,159.56-9.62,100.71,24.69L151,123.59A85,85,0,0,1,193,112.35Z"/>
  <path class="cls-1" d="M283.68,214.09a96.35,96.35,0,0,1-25.74,60.24A88.5,88.5,0,0,1,237,290.67L288,391c36.52-21.23,64.11-51.1,82.62-90.18C383.36,274,390,247.61,391,217.61Z"/>
  <path class="cls-1" d="M132.8,271.94c-16.51-17.44-25.9-41.38-25.92-66.05L.05,202.39C-.75,244,8.84,280.3,29.5,315.54a199.49,199.49,0,0,0,63.12,66.6q28.39-48.45,56.61-96.56A89.43,89.43,0,0,1,132.8,271.94Z"/>
  <path class="cls-2" d="M136.14,117.34l61.79,88.8,61.7-88.8H266V257.4H234.8V205.83l-36.87,51.45-37-51.47V257.4H129.73V117.34Z"/>
</svg>
