<svg xmlns="http://www.w3.org/2000/svg" viewBox="0 0 1854 392.49">
  <defs>
    <style>
      .cls-1,.cls-2,.cls-3{fill:#fff;}
      .cls-1{fill-rule:evenodd;}
    </style>
  </defs>
  <g id="Layer_2" data-name="Layer 2">
    <g id="Layer_1-2" data-name="Layer 1">
      <path class="cls-1" d="M193,112.35a85.35,85.35,0,0,1,47,14.33l56.07-95.62C236.2-8.79,159.56-9.62,100.71,24.69L151,123.59A85,85,0,0,1,193,112.35Z"/>
      <path class="cls-1" d="M283.68,214.09a96.35,96.35,0,0,1-25.74,60.24A88.5,88.5,0,0,1,237,290.67L288,391c36.52-21.23,64.11-51.1,82.62-90.18C383.36,274,390,247.61,391,217.61Z"/>
      <path class="cls-1" d="M132.8,271.94c-16.51-17.44-25.9-41.38-25.92-66.05L.05,202.39C-.75,244,8.84,280.3,29.5,315.54a199.49,199.49,0,0,0,63.12,66.6q28.39-48.45,56.61-96.56A89.43,89.43,0,0,1,132.8,271.94Z"/>
      <path class="cls-2" d="M136.14,117.34l61.79,88.8,61.7-88.8H266V257.4H234.8V205.83l-36.87,51.45-37-51.47V257.4H129.73V117.34Z"/>
      <path class="cls-3" d="M466.64,335.13v6h-24.8v19.17H462v6H441.84V392h-7.45V335.13Z"/>
      <path class="cls-3" d="M667.22,335.13V392h-7.45V335.13Z"/>
      <path class="cls-3" d="M908.88,392h-7.44l-30-45.28V392H864V335.05h7.44l30,45.2v-45.2h7.44Z"/>
      <path class="cls-3" d="M1140.81,335.13v6h-15.55V392h-7.45V341.17h-15.63v-6Z"/>
      <path class="cls-3" d="M1341.56,341.17v19h20.78v6.12h-20.78v19.58h23.24V392h-30.69V335.05h30.69v6.12Z"/>
      <path class="cls-3" d="M1561.21,348.55a27.22,27.22,0,0,1,10.27-10.4,28.37,28.37,0,0,1,14.44-3.75,29.4,29.4,0,0,1,16.29,4.48,25.73,25.73,0,0,1,10.14,12.73h-8.92a17.85,17.85,0,0,0-6.83-7.91,19.8,19.8,0,0,0-10.68-2.78,20.84,20.84,0,0,0-10.72,2.78,19.45,19.45,0,0,0-7.45,7.87,27.64,27.64,0,0,0,0,23.83,19.51,19.51,0,0,0,7.45,7.87,20.83,20.83,0,0,0,10.72,2.77,20,20,0,0,0,10.68-2.73,17.63,17.63,0,0,0,6.83-7.87h8.92a25.49,25.49,0,0,1-10.14,12.6,29.55,29.55,0,0,1-16.29,4.45,28.65,28.65,0,0,1-14.44-3.71,27,27,0,0,1-10.27-10.33,31.53,31.53,0,0,1,0-29.9Z"/>
      <path class="cls-3" d="M1851.48,335.13V392H1844V366.22h-29V392h-7.44V335.13H1815v25h29v-25Z"/>
      <path class="cls-2" d="M443.79,82.12,552.16,224.63,660.38,82.12h11.25V306.88h-54.8V224.12l-64.67,82.57L487.34,224.1v82.78h-54.8V82.12Z"/>
      <path class="cls-2" d="M810.43,80.87c34.34,0,60,11.28,84.49,33.51,23.24,22.24,35,49.31,35,80.53s-11.75,58.33-35,80.4c-24.44,22-50,33.1-84.48,33.1s-60.12-11.2-84.48-33.1c-23.15-22.17-34.85-49.18-34.85-80.4s11.7-58.18,34.84-80.52C750.48,92.14,776.09,80.87,810.43,80.87Zm0,55.22c-18.83,0-30.19,5.63-43.2,17.15-13.25,11.73-19.7,25.32-19.7,41.4,0,16.25,6.45,29.83,19.67,41.37s24.49,17.05,43.23,17.05c18.43,0,29.78-5.59,43.11-17.07s19.79-25,19.79-41.35c0-16.16-6.48-29.74-19.82-41.38S829,136.09,810.43,136.09Z"/>
      <path class="cls-2" d="M920.77,82.68h62.94L1024,144.4l40.44-61.72h63l-67.61,112,67.6,112.23h-63l-40.44-62-40.29,62-62.93-.17,67.26-112.08Z"/>
      <path class="cls-2" d="M1158.14,82.12,1266.5,224.63,1374.73,82.12H1386V306.88h-54.8V224.12l-64.66,82.57-64.82-82.59v82.78h-54.8V82.12Z"/>
      <path class="cls-2" d="M1405.45,306.88,1513.58,83h13L1634.8,306.88h-59.49l-16.63-34.07h-77.25l-16.63,34.07Zm100.19-78.72h28.87l-14.34-30.33Z"/>
      <path class="cls-2" d="M1666.14,82.12l131.26,118v-118H1854V306.88h-12.33l-131-117.71V306.88h-56.45V82.12Z"/>
    </g>
  </g>
</svg>
